<?xml version="1.0" encoding="UTF-8" standalone="no"?>
<svg width="395px" height="379px" viewBox="0 0 395 379" version="1.1" xmlns="http://www.w3.org/2000/svg" xmlns:xlink="http://www.w3.org/1999/xlink" style="background: #FFFFFF;">
    <!-- Generator: Sketch 3.8.2 (29753) - http://www.bohemiancoding.com/sketch -->
    <title>Slice 2</title>
    <desc>Created with Sketch.</desc>
    <defs></defs>
    <g id="Page-1" stroke="none" stroke-width="1" fill="none" fill-rule="evenodd">
        <path d="M198.5,0.5 L198.5,378.5" id="Line" stroke="#979797" stroke-linecap="square"></path>
        <path d="M387.5,189.5 L9.5,189.5" id="Line-Copy" stroke="#979797" stroke-linecap="square"></path>
        <rect id="Rectangle-1" fill-opacity="0.3" fill="#A2C8F4" x="113.001953" y="103.730469" width="170.003906" height="170.519775"></rect>
        <path d="M375.715299,49.8472201 C374.026209,48.4882334 324.611282,6.76373934 287.152958,71.1639648 C249.694634,135.56419 255.565513,157.427768 255.340747,206.456082 C255.193258,238.627787 214.532845,230.146193 152.49564,296.50589 C90.4584352,362.865587 25.7152986,366.300344 25.7152986,366.300344" id="Path-5" stroke-opacity="0.408967391" stroke="#B8E986" stroke-width="20"></path>
        <path d="M375.715299,49.8472201 C375.715299,51.8522524 324.611282,6.76373934 287.152958,71.1639648 C249.694634,135.56419 255.565513,157.427768 255.340747,206.456082 C255.193258,238.627787 214.532845,230.146193 152.49564,296.50589 C90.4584352,362.865587 25.7152986,366.300344 25.7152986,366.300344" id="Path-5-Copy" stroke="#9B9B9B"></path>
        <path d="M74.5,116.5 L131.5,145.5" id="Line" stroke="#979797" stroke-linecap="square" fill="#9B9B9B"></path>
        <path id="Line-decoration-1" d="M131.5,145.5 L123.234569,137.928828 L120.513826,143.276496 L131.5,145.5 Z" stroke="#979797" stroke-linecap="square" fill="#9B9B9B"></path>
        <path d="M316.5,109.5 L295.5,71.5" id="Line-Copy-2" stroke="#979797" stroke-linecap="square" fill="#9B9B9B"></path>
        <path id="Line-Copy-2-decoration-1" d="M295.5,71.5 L298.098085,82.4036669 L303.349535,79.5015502 L295.5,71.5 Z" stroke="#979797" stroke-linecap="square" fill="#9B9B9B"></path>
        <text id="limited-range" font-family="OpenSans, Open Sans" font-size="12" font-weight="normal" fill="#000000">
            <tspan x="12" y="101">limited range</tspan>
            <tspan x="12" y="118">of inputs</tspan>
        </text>
        <text id="true-domain" font-family="OpenSans, Open Sans" font-size="12" font-weight="normal" fill="#000000">
            <tspan x="325" y="107">true domain</tspan>
            <tspan x="325" y="124">of decoder</tspan>
        </text>
    </g>
</svg>