<?xml version="1.0" encoding="UTF-8" standalone="no"?>
<svg width="646px" height="366px" viewBox="0 0 646 366" version="1.1" xmlns="http://www.w3.org/2000/svg" xmlns:xlink="http://www.w3.org/1999/xlink">
    <!-- Generator: Sketch 3.8.2 (29753) - http://www.bohemiancoding.com/sketch -->
    <title>Group</title>
    <desc>Created with Sketch.</desc>
    <defs></defs>
    <g id="Page-1" stroke="none" stroke-width="1" fill="none" fill-rule="evenodd">
        <g id="Group" transform="translate(-1.000000, 0.000000)">
            <path d="M26.5,365.028112 L26.5,1.25162648" id="Line-Copy-9" stroke="#979797" stroke-linecap="square"></path>
            <rect id="Rectangle-2" fill="#4990E2" x="410.686952" y="94.5043635" width="10.4898197" height="10.4533473"></rect>
            <rect id="Rectangle-2-Copy" fill="#B8E986" x="412.11642" y="135.938365" width="10.4898197" height="10.4533473"></rect>
            <text id="P(accept)-for-autoen" font-family="CMUSerif-UprightItalic, CMU Serif Upright Italic" font-size="14" font-weight="500" fill="#000000">
                <tspan x="438" y="100.957711">P(</tspan>
                <tspan x="454.52" y="100.957711" font-family="CMUClassicalSerif-Italic, CMU Classical Serif" font-style="italic" font-weight="normal">accept</tspan>
                <tspan x="491.368" y="100.957711">)</tspan>
                <tspan x="497.584" y="100.957711" font-family="OpenSans, Open Sans" font-weight="normal"> for autoencoder</tspan>
            </text>
            <text id="P(accept)-for-GAN" font-family="CMUSerif-UprightItalic, CMU Serif Upright Italic" font-size="14" font-weight="500" fill="#000000">
                <tspan x="438" y="143">P(</tspan>
                <tspan x="454.52" y="143" font-family="CMUClassicalSerif-Italic, CMU Classical Serif" font-style="italic" font-weight="normal">accept</tspan>
                <tspan x="491.368" y="143">)</tspan>
                <tspan x="497.584" y="143" font-family="OpenSans, Open Sans" font-weight="normal"> for GAN</tspan>
            </text>
            <path d="M612.205533,364.917946 C612.205533,364.917946 491.209178,352.503306 446.073909,332.020145 C400.938641,311.536983 368.067656,222.988264 368.067656,222.988264 C368.067656,222.988264 355.102734,152.566945 330.577723,137.330486 C306.052711,122.094027 271.983046,171.740628 271.983046,171.740628 C271.983046,171.740628 196.458821,280.893239 165.698905,273.889218 C134.938988,266.885197 114.043177,183.282764 80.606839,194.11368 C47.1705008,204.944596 26.7485547,252.703387 26.7485529,265.47986 C26.748551,278.256333 26.7485529,364.917946 26.7485529,364.917946" id="Path-22" fill-opacity="0.7" fill="#B8E986"></path>
            <path d="M27.208885,364.5 L646.108249,364.5" id="Line" stroke="#979797" stroke-linecap="square"></path>
            <path d="M319.5,362.275531 L319.5,25.6777491" id="Line" stroke="#4990E2" stroke-width="5" stroke-linecap="square"></path>
            <path d="M15.4032249,15.5 L38.3103863,15.5" id="Line" stroke="#979797" stroke-linecap="square"></path>
            <text id="1" font-family="CMUSerif-UprightItalic, CMU Serif Upright Italic" font-size="14" font-weight="500" fill="#000000">
                <tspan x="0" y="19">1</tspan>
            </text>
        </g>
    </g>
</svg>